<svg width="198" height="198" viewBox="0 0 198 198" fill="none" xmlns="http://www.w3.org/2000/svg">
<circle cx="99" cy="99" r="99" fill="url(#paint0_linear_184_378)" fill-opacity="0.8"/>
<path d="M64.472 134.576C59.48 134.576 54.68 133.776 50.072 132.176C45.528 130.512 42.008 128.4 39.512 125.84L42.296 120.368C44.664 122.672 47.832 124.624 51.8 126.224C55.832 127.76 60.056 128.528 64.472 128.528C68.696 128.528 72.12 128.016 74.744 126.992C77.432 125.904 79.384 124.464 80.6 122.672C81.88 120.88 82.52 118.896 82.52 116.72C82.52 114.096 81.752 111.984 80.216 110.384C78.744 108.784 76.792 107.536 74.36 106.64C71.928 105.68 69.24 104.848 66.296 104.144C63.352 103.44 60.408 102.704 57.464 101.936C54.52 101.104 51.8 100.016 49.304 98.672C46.872 97.328 44.888 95.568 43.352 93.392C41.88 91.152 41.144 88.24 41.144 84.656C41.144 81.328 42.008 78.288 43.736 75.536C45.528 72.72 48.248 70.48 51.896 68.816C55.544 67.088 60.216 66.224 65.912 66.224C69.688 66.224 73.432 66.768 77.144 67.856C80.856 68.88 84.056 70.32 86.744 72.176L84.344 77.84C81.464 75.92 78.392 74.512 75.128 73.616C71.928 72.72 68.824 72.272 65.816 72.272C61.784 72.272 58.456 72.816 55.832 73.904C53.208 74.992 51.256 76.464 49.976 78.32C48.76 80.112 48.152 82.16 48.152 84.464C48.152 87.088 48.888 89.2 50.36 90.8C51.896 92.4 53.88 93.648 56.312 94.544C58.808 95.44 61.528 96.24 64.472 96.944C67.416 97.648 70.328 98.416 73.208 99.248C76.152 100.08 78.84 101.168 81.272 102.512C83.768 103.792 85.752 105.52 87.224 107.696C88.76 109.872 89.528 112.72 89.528 116.24C89.528 119.504 88.632 122.544 86.84 125.36C85.048 128.112 82.296 130.352 78.584 132.08C74.936 133.744 70.232 134.576 64.472 134.576ZM94.2545 134L124.975 66.8H131.983L162.703 134H155.215L126.991 70.928H129.871L101.647 134H94.2545ZM106.351 116.048L108.463 110.288H147.535L149.647 116.048H106.351Z" fill="white"/>
<defs>
<linearGradient id="paint0_linear_184_378" x1="0" y1="98.9999" x2="198" y2="98.9999" gradientUnits="userSpaceOnUse">
<stop stop-color="#00121B"/>
<stop offset="0.471179" stop-color="#241C23"/>
<stop offset="1" stop-color="#160110"/>
</linearGradient>
</defs>
</svg>
